name D:\school\WTK\thesis\model\3dpredictsim\Results\MidTarsalJoint\Fal_s1_bCst_PF_Natali2010_ls148_MT_nl_fitted_Mmtp_ig24.mot
datacolumns 128
datarows 4
range 1.68109810 1.71472006
endheader
time	pelvis_tilt	pelvis_list	pelvis_rotation	pelvis_tx	pelvis_ty	pelvis_tz	hip_flexion_l	hip_adduction_l	hip_rotation_l	hip_flexion_r	hip_adduction_r	hip_rotation_r	knee_angle_l	knee_angle_r	ankle_angle_l	ankle_angle_r	subtalar_angle_l	subtalar_angle_r	tmt_angle_l	tmt_angle_r	mtp_angle_l	mtp_angle_r	lumbar_extension	lumbar_bending	lumbar_rotation	arm_flex_l	arm_add_l	arm_rot_l	arm_flex_r	arm_add_r	arm_rot_r	elbow_flex_l	elbow_flex_r	pro_sup_l	pro_sup_r	glut_med1_l/activation	glut_med2_l/activation	glut_med3_l/activation	glut_min1_l/activation	glut_min2_l/activation	glut_min3_l/activation	semimem_l/activation	semiten_l/activation	bifemlh_l/activation	bifemsh_l/activation	sar_l/activation	add_long_l/activation	add_brev_l/activation	add_mag1_l/activation	add_mag2_l/activation	add_mag3_l/activation	tfl_l/activation	pect_l/activation	grac_l/activation	glut_max1_l/activation	glut_max2_l/activation	glut_max3_l/activation	iliacus_l/activation	psoas_l/activation	quad_fem_l/activation	gem_l/activation	peri_l/activation	rect_fem_l/activation	vas_med_l/activation	vas_int_l/activation	vas_lat_l/activation	med_gas_l/activation	lat_gas_l/activation	soleus_l/activation	tib_post_l/activation	flex_dig_l/activation	flex_hal_l/activation	tib_ant_l/activation	per_brev_l/activation	per_long_l/activation	per_tert_l/activation	ext_dig_l/activation	ext_hal_l/activation	ercspn_l/activation	intobl_l/activation	extobl_l/activation	glut_med1_r/activation	glut_med2_r/activation	glut_med3_r/activation	glut_min1_r/activation	glut_min2_r/activation	glut_min3_r/activation	semimem_r/activation	semiten_r/activation	bifemlh_r/activation	bifemsh_r/activation	sar_r/activation	add_long_r/activation	add_brev_r/activation	add_mag1_r/activation	add_mag2_r/activation	add_mag3_r/activation	tfl_r/activation	pect_r/activation	grac_r/activation	glut_max1_r/activation	glut_max2_r/activation	glut_max3_r/activation	iliacus_r/activation	psoas_r/activation	quad_fem_r/activation	gem_r/activation	peri_r/activation	rect_fem_r/activation	vas_med_r/activation	vas_int_r/activation	vas_lat_r/activation	med_gas_r/activation	lat_gas_r/activation	soleus_r/activation	tib_post_r/activation	flex_dig_r/activation	flex_hal_r/activation	tib_ant_r/activation	per_brev_r/activation	per_long_r/activation	per_tert_r/activation	ext_dig_r/activation	ext_hal_r/activation	ercspn_r/activation	intobl_r/activation	extobl_r/activation	
          1.68109810	         -2.92681794	          2.18481367	         -5.51764367	          2.10137262	          0.91644394	          0.00252648	         28.82031850	          4.20295253	         -2.35357627	        -16.29640087	         -0.73096216	          6.70683005	        -12.56756473	        -11.08581829	          4.43068288	         -2.59664493	         -8.44030119	          6.23042282	          0.84694223	          3.63497107	         -6.09842681	         19.89646753	         -1.72735083	         -0.65289723	          2.04356817	         -5.84754321	        -13.45005875	          6.77586099	          4.67708266	        -13.45180374	         17.26299592	         15.65656663	         35.46440912	         86.51662706	         86.51662706	          0.24000611	          0.05000019	          0.13700963	          0.05000035	          0.05000020	          0.05000053	          0.12144190	          0.05000079	          0.15828564	          0.05000011	          0.05000050	          0.09301917	          0.18598442	          0.19460499	          0.13742811	          0.10200045	          0.05000129	          0.05935192	          0.07520802	          0.05000161	          0.08422946	          0.09270612	          0.05933911	          0.05514043	          0.45036478	          0.15502394	          0.13454789	          0.07042294	          0.15808555	          0.15607793	          0.13632292	          0.05933643	          0.05933953	          0.05933843	          0.05000016	          0.13993369	          0.12189434	          0.52239170	          0.38991488	          0.21773982	          0.23362180	          0.45588681	          0.08844310	          0.05000001	          0.11953541	          0.07621629	          0.36739341	          0.07082012	          0.05000070	          0.22287207	          0.14314460	          0.08151111	          0.05000741	          0.05000256	          0.05000141	          0.05000024	          0.07460689	          0.13890275	          0.11601494	          0.05934080	          0.05934059	          0.05934143	          0.21759883	          0.06540837	          0.05001233	          0.05004375	          0.05552363	          0.05933899	          0.30341655	          0.53609676	          0.05212768	          0.05000222	          0.05000014	          0.19209739	          0.17549028	          0.15042812	          0.12820244	          0.20604575	          0.27257142	          0.23329344	          0.21147069	          0.17942301	          0.23717365	          0.05000016	          0.05000016	          0.10557692	          0.05000021	          0.05558748	          0.06126481	          0.05000026	          0.06650233	          0.06279002	
          1.69230542	         -2.92279413	          2.29231385	         -5.75794193	          2.11868124	          0.91563928	          0.00235357	         27.98719422	          4.44770738	         -2.12971921	        -16.24839050	         -1.04219441	          6.55073758	        -12.93078495	        -12.82406426	          3.76785604	         -3.26173717	         -8.74101713	          7.06721582	          0.90711068	          2.56046694	         -6.61023806	         22.12054721	         -1.48948273	         -0.85969288	          2.10236103	         -6.71700372	        -13.45274568	          6.62352974	          4.26776064	        -13.45195117	         17.41902316	         15.29167776	         36.58254461	         86.51662706	         86.51662706	          0.30109733	          0.26705683	          0.31569951	          0.17964442	          0.22090147	          0.20732396	          0.10232820	          0.07992989	          0.13337310	          0.09880679	          0.05901942	          0.07837895	          0.15671239	          0.16397636	          0.11579874	          0.12296866	          0.05000084	          0.05001127	          0.10444964	          0.18920417	          0.14875112	          0.09707509	          0.05000018	          0.05000017	          0.37948199	          0.13062501	          0.17319333	          0.05933911	          0.13320460	          0.13151300	          0.11486718	          0.05000020	          0.05000049	          0.05000003	          0.05000012	          0.12766997	          0.10271147	          0.62242985	          0.40609312	          0.22993225	          0.52811828	          0.43750026	          0.13281735	          0.06887175	          0.11771620	          0.06422063	          0.33484334	          0.05967378	          0.05000008	          0.41487165	          0.12061519	          0.06868219	          0.05000273	          0.05000026	          0.05000021	          0.05000084	          0.07042180	          0.14227421	          0.09775560	          0.05000151	          0.05000213	          0.05000213	          0.18335194	          0.07596475	          0.05000069	          0.05000120	          0.05000071	          0.05000064	          0.27003451	          0.51474492	          0.05000008	          0.05000055	          0.05000058	          0.19086468	          0.14788254	          0.12675696	          0.19676332	          0.17361621	          0.22967141	          0.19657538	          0.17818733	          0.18667115	          0.22185328	          0.10232177	          0.12114891	          0.11185636	          0.05000085	          0.10513105	          0.08357652	          0.05688958	          0.05603553	          0.05290752	
          1.70351274	         -2.91813492	          2.38661053	         -5.96071848	          2.13599521	          0.91488809	          0.00214692	         27.16499160	          4.68608256	         -1.90722974	        -16.16382135	         -1.33840716	          6.41477476	        -13.33666810	        -14.56821816	          3.20097890	         -3.90443194	         -9.04544295	          7.88977008	          0.94103868	          1.10324082	         -7.07731528	         24.69594867	         -1.26209620	         -1.06045505	          2.15371279	         -7.54547637	        -13.45411967	          6.52202067	          3.83252647	        -13.45910093	         17.53654501	         14.93597853	         37.64816885	         86.51662706	         86.51662706	          0.39574430	          0.35450881	          0.40110761	          0.20461774	          0.18615572	          0.26622310	          0.09180398	          0.08315323	          0.11376787	          0.08325566	          0.05000068	          0.06604303	          0.13204768	          0.13817039	          0.15503437	          0.15374063	          0.05000050	          0.05001816	          0.08801263	          0.23884832	          0.18482966	          0.14269630	          0.05000028	          0.05000024	          0.31975543	          0.11006617	          0.20635993	          0.05000012	          0.16585364	          0.16961815	          0.14305324	          0.05000004	          0.05000008	          0.05000001	          0.05000004	          0.18535473	          0.11920329	          0.70511690	          0.34217828	          0.19374330	          0.60702064	          0.47724962	          0.11191439	          0.08310120	          0.09918890	          0.05411298	          0.38500941	          0.05028185	          0.05000025	          0.34957548	          0.10163168	          0.05787249	          0.05000249	          0.05000036	          0.05000033	          0.05000023	          0.05933882	          0.15710485	          0.13638596	          0.05003092	          0.05001562	          0.05002106	          0.15449463	          0.06401293	          0.05000164	          0.05000615	          0.05000390	          0.05000315	          0.22753389	          0.48801971	          0.05000059	          0.05000134	          0.05000019	          0.16082453	          0.16579921	          0.16579914	          0.16579543	          0.14629076	          0.19352344	          0.16563638	          0.15014244	          0.22065325	          0.28350119	          0.19445410	          0.14876012	          0.09425268	          0.22879435	          0.14552986	          0.07042298	          0.07489939	          0.05000003	          0.05000006	
          1.71472006	         -2.91300283	          2.47539503	         -6.12873313	          2.15317623	          0.91426167	          0.00191161	         26.41905577	          4.93348345	         -1.68222758	        -16.02981794	         -1.62439259	          6.30094773	        -13.85695047	        -16.31548470	          2.61365997	         -4.53083258	         -9.35775044	          8.70290281	          0.98746782	         -0.74541502	         -7.50299322	         27.65142926	         -1.05229115	         -1.26456992	          2.19802612	         -8.30923647	        -13.45519845	          6.45794393	          3.40462038	        -13.46719195	         17.64545789	         14.58163527	         38.62202173	         86.51662706	         86.51662706	          0.47584781	          0.44087605	          0.46916170	          0.17241680	          0.26473456	          0.30307887	          0.07735533	          0.08465849	          0.09586256	          0.07015215	          0.05000064	          0.05564865	          0.11126486	          0.11642674	          0.16974253	          0.18055415	          0.05000058	          0.05000244	          0.07434552	          0.29485528	          0.22789732	          0.18273916	          0.05000012	          0.05000013	          0.26942926	          0.09274311	          0.17388188	          0.05000013	          0.24387358	          0.24769264	          0.20906789	          0.05000006	          0.05000015	          0.05000002	          0.10067239	          0.15618253	          0.10044284	          0.76714179	          0.28832289	          0.16325008	          0.51148181	          0.44907778	          0.13276269	          0.09223207	          0.08357758	          0.05000006	          0.33729479	          0.05000015	          0.05000007	          0.29455676	          0.08563598	          0.05000029	          0.05000235	          0.05000020	          0.05000019	          0.05000013	          0.05000113	          0.13399672	          0.23684476	          0.05000178	          0.05000897	          0.13000709	          0.13017929	          0.05393932	          0.05000042	          0.05000193	          0.05000136	          0.05000118	          0.19172240	          0.46332804	          0.05000010	          0.05000044	          0.05000014	          0.13551237	          0.13970419	          0.13970413	          0.13970098	          0.12326606	          0.16306479	          0.13956687	          0.12651154	          0.18592523	          0.23888170	          0.27607507	          0.13601839	          0.07941848	          0.55859299	          0.12756882	          0.05933925	          0.09988264	          0.05000003	          0.05000006	
